<svg width="114" height="42" viewBox="0 0 114 42" fill="none" xmlns="http://www.w3.org/2000/svg">
<path d="M0 38.5913V13.2661C0 12.2491 0.281303 11.422 0.855125 10.7962C1.42896 10.1703 2.17152 9.85738 3.08289 9.85738C4.73686 9.85738 5.76077 10.7068 6.16582 12.4055C6.70589 11.5003 7.51598 10.8074 8.60738 10.3268C9.68752 9.8462 10.8352 9.60032 12.0278 9.60032C15.1332 9.60032 17.5636 10.8185 19.2963 13.2549C21.0628 15.6578 21.9517 18.4854 21.9517 21.7153C21.9517 24.744 20.9953 27.4263 19.0825 29.7509C17.2035 32.0756 14.7732 33.2379 11.8141 33.2379C9.69878 33.2379 7.81979 32.5338 6.16582 31.1144V38.5913C6.16582 39.6083 5.88453 40.4353 5.3107 41.0612C4.73688 41.6871 3.99427 42 3.08289 42C2.17152 42 1.42896 41.6871 0.855125 41.0612C0.281303 40.4353 0 39.6195 0 38.5913ZM6.15456 21.2571C6.15456 22.9335 6.57088 24.4199 7.39223 25.7163C8.21359 26.9904 9.4175 27.6275 10.9815 27.6275C12.4667 27.6275 13.6368 27.0016 14.4919 25.761C15.347 24.487 15.7746 23.0564 15.7746 21.4694C15.7746 19.86 15.347 18.4071 14.4919 17.1331C13.6368 15.859 12.4667 15.2219 10.9815 15.2219C9.44 15.2219 8.24734 15.8143 7.39223 17.0101C6.57088 18.1948 6.15456 19.6142 6.15456 21.2571ZM24.472 29.5833V12.9308C24.472 11.9697 24.787 11.2209 25.4171 10.6844C26.0697 10.1479 26.8123 9.87972 27.6449 9.87972C29.6364 9.87972 30.6378 10.7291 30.6378 12.4279H30.7278C31.8979 10.7291 33.3381 9.87972 35.0484 9.87972C35.881 9.87972 36.5786 10.1591 37.1411 10.7291C37.7375 11.2991 38.0413 12.1038 38.0413 13.1543C38.0413 13.6349 37.9175 14.0484 37.6587 14.3837C37.4337 14.6966 37.1861 14.9202 36.9274 15.0655C36.7023 15.1772 36.2748 15.3672 35.6447 15.6131C35.0484 15.8366 34.6208 16.0043 34.362 16.1272C33.7094 16.4401 33.2369 16.6748 32.9556 16.8536C32.6743 16.9989 32.303 17.2336 31.8417 17.5801C31.4141 17.893 31.0991 18.273 30.8966 18.7312C30.7278 19.1559 30.6378 19.6477 30.6378 20.2177V29.6056C30.6378 30.6227 30.3565 31.4497 29.7827 32.0756C29.2088 32.7014 28.4662 33.0144 27.5549 33.0144C26.6435 33.0144 25.9009 32.7014 25.3271 32.0756C24.7533 31.4497 24.472 30.6003 24.472 29.5833ZM40.2803 13.1432C42.3956 10.7962 45.0284 9.6115 48.1901 9.6115C51.3517 9.6115 53.9734 10.785 56.0549 13.1432C58.1702 15.4901 59.2165 18.273 59.2165 21.4694C59.2165 24.7217 58.1927 27.5045 56.1336 29.7956C54.0746 32.0868 51.4305 33.2379 48.1788 33.2379C44.9272 33.2379 42.2718 32.0868 40.224 29.7956C38.165 27.5045 37.1411 24.7217 37.1411 21.4694C37.1524 18.273 38.1988 15.4901 40.2803 13.1432ZM51.7906 17.1331C50.958 15.859 49.7653 15.2219 48.2013 15.2219C46.6374 15.2219 45.4222 15.859 44.5671 17.1331C43.7458 18.3848 43.3295 19.8265 43.3295 21.4694C43.3295 23.0788 43.7458 24.5093 44.5671 25.761C45.4222 27.0128 46.6374 27.6275 48.2013 27.6275C49.7653 27.6275 50.9692 27.0016 51.7906 25.761C52.6457 24.5093 53.0732 23.0788 53.0732 21.4694C53.0732 19.8265 52.6457 18.3848 51.7906 17.1331ZM61.8269 29.5833V13.2661C61.8269 12.2491 62.1082 11.422 62.682 10.7962C63.2558 10.1703 63.9984 9.85738 64.9098 9.85738C66.5638 9.85738 67.5089 10.6062 67.7339 12.115C68.9266 10.4385 70.9181 9.6115 73.6747 9.6115C76.1613 9.6115 78.1865 10.3491 79.7505 11.8244C81.3144 13.2996 82.102 15.3113 82.102 17.8595V29.5833C82.102 30.6003 81.8208 31.4274 81.2469 32.0532C80.6731 32.6791 79.9305 32.992 79.0192 32.992C78.1078 32.992 77.3652 32.6791 76.7914 32.0532C76.2175 31.4274 75.9362 30.6115 75.9362 29.5833V18.9212C75.9362 17.5578 75.5537 16.5295 74.7773 15.8143C74.0347 15.0766 73.0784 14.7078 71.9082 14.7078C70.6818 14.7078 69.7142 15.099 68.9941 15.8925C68.3077 16.686 67.9702 17.6919 67.9702 18.9101V29.5721C67.9702 30.5891 67.6889 31.4162 67.1151 32.042C66.5412 32.6679 65.7987 32.9808 64.8873 32.9808C63.9759 32.9808 63.2333 32.6679 62.6595 32.042C62.1082 31.4274 61.8269 30.6003 61.8269 29.5833ZM85.5112 29.5833V3.40873C85.5112 2.3917 85.7925 1.56466 86.3664 0.938793C86.9402 0.312928 87.6828 0 88.5941 0C89.5055 0 90.2481 0.312928 90.8219 0.938793C91.3958 1.56466 91.6771 2.38052 91.6771 3.40873V29.5833C91.6771 30.6003 91.3958 31.4274 90.8219 32.0532C90.2481 32.6791 89.5055 32.992 88.5941 32.992C87.6828 32.992 86.9402 32.6791 86.3664 32.0532C85.7925 31.4274 85.5112 30.6003 85.5112 29.5833ZM100.341 30.9468L93.5448 14.082C93.3423 13.5455 93.241 13.0202 93.241 12.5061C93.241 11.7685 93.556 11.1426 94.1861 10.6397C94.8162 10.1256 95.4688 9.87972 96.1551 9.87972C97.6628 9.87972 98.698 10.6062 99.238 12.0479L103.469 23.5593L108.003 12.0479C108.543 10.6062 109.567 9.87972 111.086 9.87972C111.772 9.87972 112.425 10.1368 113.055 10.6397C113.685 11.1538 114 11.7685 114 12.5061C114 13.132 113.899 13.6573 113.696 14.082L103.39 39.5748C102.737 41.1841 101.77 42 100.476 42C99.4743 42 98.698 41.7318 98.1242 41.1953C97.5503 40.6812 97.269 40.0777 97.269 39.3736C97.269 38.8371 97.3928 38.2448 97.6516 37.5854L100.341 30.9468Z" fill="white" style="fill:white;fill-opacity:1;"/>
</svg>
