<svg width="45" height="46" viewBox="0 0 45 46" fill="none" xmlns="http://www.w3.org/2000/svg">
<path d="M42.3623 0.5C33.3655 0.5 22.5 6.95995 22.5 14.982C22.5 15.029 22.513 15.1627 22.519 15.2097C22.534 15.6651 22.8476 16.0566 23.289 16.1685C23.7275 16.2814 24.194 16.0886 24.4236 15.6951C27.1133 11.1068 31.0584 7.57819 36.4866 4.90648C36.9891 4.65479 37.6103 4.87848 37.8539 5.37188C37.9136 5.4924 37.9489 5.62356 37.9576 5.75779C37.9664 5.89201 37.9484 6.02664 37.9048 6.15388C37.8622 6.28106 37.7946 6.39849 37.7062 6.49931C37.6177 6.60014 37.51 6.68235 37.3895 6.74115C31.2891 9.74519 27.1905 13.8797 24.8533 19.3719C24.8154 19.4278 24.7673 19.4744 24.7402 19.5392C23.274 23.0748 22.52 27.2705 22.5 32.0107C22.1392 31.0601 21.7131 30.156 21.2547 29.2742C22.0675 28.0272 22.5 26.6703 22.5 25.2092C22.5 17.1871 11.6345 10.7272 2.63768 10.7272C1.18355 10.7273 0 11.9107 0 13.365C0 22.3617 6.45997 33.2272 14.483 33.2272C16.4567 33.2272 18.2453 32.4549 19.8169 30.976C21.6092 34.755 22.5 39.1927 22.5 44.4772C22.4999 44.6116 22.5263 44.7446 22.5776 44.8687C22.629 44.9929 22.7043 45.1056 22.7993 45.2006C22.8943 45.2956 23.0071 45.371 23.1312 45.4223C23.2553 45.4737 23.3884 45.5001 23.5227 45.5C23.657 45.5001 23.7901 45.4737 23.9142 45.4223C24.0383 45.371 24.1511 45.2956 24.2461 45.2006C24.3411 45.1056 24.4164 44.9929 24.4678 44.8687C24.5192 44.7446 24.5456 44.6116 24.5455 44.4772V32.2045C24.5455 28.2019 25.12 24.6577 26.1921 21.5854C27.5113 22.519 28.9591 23 30.518 23C38.54 23 45 12.1345 45 3.13777C45 1.68355 43.8165 0.5 42.3623 0.5Z" fill="url(#paint0_radial_154_316)" style=""/>
<defs>
<radialGradient id="paint0_radial_154_316" cx="0" cy="0" r="1" gradientUnits="userSpaceOnUse" gradientTransform="translate(14.25 7.25) rotate(60.611) scale(37.4437)">
<stop stop-color="#7DC1F7" style="stop-color:#7DC1F7;stop-color:color(display-p3 0.4914 0.7558 0.9667);stop-opacity:1;"/>
<stop offset="1" stop-color="#408FCE" style="stop-color:#408FCE;stop-color:color(display-p3 0.2510 0.5608 0.8078);stop-opacity:1;"/>
</radialGradient>
</defs>
</svg>
