<svg width="40" height="46" viewBox="0 0 40 46" fill="none" xmlns="http://www.w3.org/2000/svg">
<path d="M0.808 8.13394L19.4747 0.1082C19.6407 0.036811 19.8194 0 20 0C20.1806 0 20.3593 0.036811 20.5253 0.1082L39.192 8.13394C39.4318 8.23706 39.6362 8.40849 39.7798 8.627C39.9234 8.8455 40 9.10148 40 9.36321V18.6002C40 24.3938 38.2143 30.0456 34.8876 34.7814C31.5609 39.5171 26.8559 43.1051 21.4173 45.0537L20.4487 45.4014C20.1585 45.5055 19.8415 45.5055 19.5513 45.4014L18.5827 45.0537C13.1441 43.1051 8.43913 39.5171 5.11243 34.7814C1.78573 30.0456 2.83583e-05 24.3938 0 18.6002L0 9.36321C2.88138e-05 9.10148 0.0765974 8.8455 0.22022 8.627C0.363843 8.40849 0.568209 8.23706 0.808 8.13394ZM24.3907 18.4497L19.3333 23.5233L16.9427 21.1249C16.6912 20.8813 16.3544 20.7464 16.0048 20.7495C15.6552 20.7525 15.3208 20.8932 15.0736 21.1412C14.8264 21.3892 14.6861 21.7247 14.6831 22.0754C14.6801 22.4262 14.8145 22.764 15.0573 23.0163L18.3907 26.3604C18.6407 26.6111 18.9798 26.752 19.3333 26.752C19.6869 26.752 20.026 26.6111 20.276 26.3604L26.276 20.3411C26.5189 20.0888 26.6533 19.7509 26.6502 19.4002C26.6472 19.0495 26.507 18.714 26.2598 18.466C26.0125 18.218 25.6781 18.0773 25.3285 18.0742C24.9789 18.0712 24.6421 18.206 24.3907 18.4497Z" fill="url(#paint0_radial_154_313)" style=""/>
<defs>
<radialGradient id="paint0_radial_154_313" cx="0" cy="0" r="1" gradientUnits="userSpaceOnUse" gradientTransform="translate(12.6667 6.82192) rotate(63.648) scale(36.7963 34.2297)">
<stop stop-color="#7DC1F7" style="stop-color:#7DC1F7;stop-color:color(display-p3 0.4914 0.7558 0.9667);stop-opacity:1;"/>
<stop offset="1" stop-color="#408FCE" style="stop-color:#408FCE;stop-color:color(display-p3 0.2510 0.5608 0.8078);stop-opacity:1;"/>
</radialGradient>
</defs>
</svg>
