<svg width="40" height="40" viewBox="0 0 40 40" fill="none" xmlns="http://www.w3.org/2000/svg">
<path d="M20 32.9296C19.4543 32.9289 18.9162 32.8018 18.4278 32.5584L5.34532 26.0171L0.647922 28.3658C0.453237 28.4631 0.289498 28.6127 0.175058 28.7978C0.0606175 28.983 0 29.1963 0 29.4139C0 29.6316 0.0606175 29.8449 0.175058 30.0301C0.289498 30.2152 0.453237 30.3648 0.647922 30.4621L19.4759 39.8761C19.6386 39.9575 19.8181 39.9999 20 39.9999C20.1819 39.9999 20.3614 39.9575 20.5241 39.8761L39.3521 30.4621C39.5468 30.3648 39.7105 30.2152 39.8249 30.0301C39.9394 29.8449 40 29.6316 40 29.4139C40 29.1963 39.9394 28.983 39.8249 28.7978C39.7105 28.6127 39.5468 28.4631 39.3521 28.3658L34.6547 26.0172L21.5722 32.5584C21.0838 32.8018 20.5457 32.9289 20 32.9296Z" fill="url(#paint0_radial_154_328)" style=""/>
<path d="M39.3521 18.9518L34.6547 16.6031L21.5722 23.1443C21.0866 23.3871 20.5429 23.5155 20 23.5155C19.4571 23.5155 18.9134 23.3871 18.4278 23.1443L5.34532 16.603L0.647922 18.9518C0.453237 19.0491 0.289498 19.1986 0.175058 19.3838C0.0606175 19.5689 0 19.7822 0 19.9999C0 20.2175 0.0606175 20.4309 0.175058 20.616C0.289498 20.8011 0.453237 20.9507 0.647922 21.048L19.4759 30.462C19.6386 30.5434 19.8181 30.5858 20 30.5858C20.1819 30.5858 20.3614 30.5434 20.5241 30.462L39.3521 21.048C39.5467 20.9507 39.7105 20.8011 39.8249 20.616C39.9393 20.4308 39.9999 20.2175 39.9999 19.9999C39.9999 19.7823 39.9393 19.5689 39.8249 19.3838C39.7105 19.1987 39.5467 19.0491 39.3521 18.9518Z" fill="url(#paint1_radial_154_328)" style=""/>
<path d="M19.4759 21.0479C19.6386 21.1294 19.8181 21.1717 20 21.1717C20.1819 21.1717 20.3614 21.1294 20.5241 21.0479L39.3521 11.6339C39.5468 11.5366 39.7105 11.3871 39.8249 11.2019C39.9394 11.0168 40 10.8035 40 10.5858C40 10.3682 39.9394 10.1548 39.8249 9.96971C39.7105 9.78458 39.5468 9.63499 39.3521 9.5377L20.5241 0.123691C20.3613 0.0423478 20.1819 0 20 0C19.8181 0 19.6387 0.0423478 19.4759 0.123691L0.647922 9.5377C0.453237 9.63499 0.289498 9.78458 0.175058 9.96971C0.0606175 10.1548 0 10.3682 0 10.5858C0 10.8035 0.0606175 11.0168 0.175058 11.2019C0.289498 11.3871 0.453237 11.5366 0.647922 11.6339L19.4759 21.0479Z" fill="url(#paint2_radial_154_328)" style=""/>
<defs>
<radialGradient id="paint0_radial_154_328" cx="0" cy="0" r="1" gradientUnits="userSpaceOnUse" gradientTransform="translate(12.6667 28.1145) rotate(31.8264) scale(19.2236 20.1443)">
<stop stop-color="#7DC1F7" style="stop-color:#7DC1F7;stop-color:color(display-p3 0.4914 0.7558 0.9667);stop-opacity:1;"/>
<stop offset="1" stop-color="#408FCE" style="stop-color:#408FCE;stop-color:color(display-p3 0.2510 0.5608 0.8078);stop-opacity:1;"/>
</radialGradient>
<radialGradient id="paint1_radial_154_328" cx="0" cy="0" r="1" gradientUnits="userSpaceOnUse" gradientTransform="translate(12.6666 18.7004) rotate(31.8265) scale(19.2236 20.1443)">
<stop stop-color="#7DC1F7" style="stop-color:#7DC1F7;stop-color:color(display-p3 0.4914 0.7558 0.9667);stop-opacity:1;"/>
<stop offset="1" stop-color="#408FCE" style="stop-color:#408FCE;stop-color:color(display-p3 0.2510 0.5608 0.8078);stop-opacity:1;"/>
</radialGradient>
<radialGradient id="paint2_radial_154_328" cx="0" cy="0" r="1" gradientUnits="userSpaceOnUse" gradientTransform="translate(12.6667 3.17576) rotate(43.2214) scale(22.414 26.1596)">
<stop stop-color="#7DC1F7" style="stop-color:#7DC1F7;stop-color:color(display-p3 0.4914 0.7558 0.9667);stop-opacity:1;"/>
<stop offset="1" stop-color="#408FCE" style="stop-color:#408FCE;stop-color:color(display-p3 0.2510 0.5608 0.8078);stop-opacity:1;"/>
</radialGradient>
</defs>
</svg>
