<svg width="45" height="46" viewBox="0 0 45 46" fill="none" xmlns="http://www.w3.org/2000/svg">
<path fill-rule="evenodd" clip-rule="evenodd" d="M18.5433 2.38742C18.3198 2.695 18.0396 3.08064 17.6013 3.51899C17.4873 3.74683 17.3734 3.91772 17.2595 4.08861C17.1456 4.25949 17.0316 4.43038 16.9177 4.65823C15.7785 5.56962 14.6392 6.02532 13.2722 6.02532H12.1329C10.7658 5.79747 10.0823 5.79747 9.62658 5.79747C7.3481 6.02532 5.29747 7.8481 5.06962 10.3544C5.06962 10.8101 5.06962 11.4937 5.29747 12.6329V13.7722C5.29747 15.1392 4.84177 16.5063 3.93038 17.4177C3.70253 17.4177 3.47468 17.6456 3.01899 18.1013C2.88298 18.2033 2.75205 18.3002 2.62696 18.3928C1.91374 18.9208 1.39005 19.3085 1.1962 19.6962C-0.398734 21.7468 -0.398734 24.481 1.1962 26.3038C1.31446 26.5403 1.55549 26.7155 1.88742 26.9567C2.195 27.1802 2.58064 27.4604 3.01899 27.8987C3.47468 28.1266 3.70253 28.3544 3.93038 28.5823C4.84177 29.7215 5.29747 30.8608 5.29747 32.2278V33.3671C5.06962 34.7342 5.06962 35.4177 5.06962 35.8734C5.29747 38.1519 7.12025 40.2025 9.62658 40.4304C10.0823 40.4304 10.7658 40.4304 12.1329 40.2025H13.2722C14.6392 40.2025 16.0063 40.6582 16.9177 41.5696C16.9177 41.7975 17.1456 42.0253 17.6013 42.481C17.7033 42.617 17.8002 42.7479 17.8928 42.873C18.4208 43.5863 18.8085 44.1099 19.1962 44.3038C21.2468 45.8987 23.981 45.8987 25.8038 44.3038C26.0403 44.1855 26.2155 43.9445 26.4567 43.6126C26.6802 43.305 26.9604 42.9194 27.3987 42.481C27.6266 42.0253 27.8544 41.7975 28.0823 41.5696C29.2215 40.6582 30.3608 40.2025 31.7278 40.2025H32.8671C34.2342 40.4304 34.9177 40.4304 35.3734 40.4304C37.6519 40.2025 39.7025 38.3797 39.9304 35.8734C39.9304 35.4177 39.9304 34.7342 39.7025 33.3671V32.2278C39.7025 30.8608 40.1582 29.4937 41.0696 28.5823C41.2975 28.5823 41.5253 28.3544 41.981 27.8987C42.117 27.7967 42.2479 27.6998 42.373 27.6072C43.0862 27.0792 43.6099 26.6915 43.8038 26.3038C45.3987 24.2532 45.3987 21.519 43.8038 19.6962C43.6855 19.4597 43.4445 19.2845 43.1126 19.0433C42.805 18.8198 42.4194 18.5396 41.981 18.1013C41.5253 17.8734 41.2975 17.6456 41.0696 17.4177C40.1582 16.2785 39.7025 15.1392 39.7025 13.7722V12.6329C39.9304 11.2658 39.9304 10.5823 39.9304 10.1266C39.7025 7.8481 37.8797 5.79747 35.3734 5.56962C34.9177 5.56962 34.2342 5.56962 32.8671 5.79747H31.7278C30.3608 5.79747 28.9937 5.34177 28.0823 4.43038C28.0823 4.20253 27.8544 3.97468 27.3987 3.51899C27.2967 3.38299 27.1998 3.25207 27.1072 3.12698C26.5792 2.41375 26.1915 1.89005 25.8038 1.6962C23.7532 0.101266 21.019 0.101266 19.1962 1.6962C18.9597 1.81446 18.7845 2.05549 18.5433 2.38742ZM19.1962 29.2658C19.4241 29.4937 19.8798 29.7215 20.3355 29.7215C20.6691 29.7215 21.0026 29.5994 21.4256 29.4446C21.5804 29.388 21.7472 29.3269 21.9304 29.2658L31.0443 20.1519C31.7279 19.4684 31.7279 18.3291 31.0443 17.6456C30.3608 16.962 29.2215 16.962 28.538 17.6456L20.5633 25.6203L17.1456 22.2026C16.462 21.519 15.3228 21.519 14.6393 22.2026C13.9557 22.8861 13.9557 24.0253 14.6393 24.7089L19.1962 29.2658Z" fill="url(#paint0_radial_154_325)" style=""/>
<defs>
<radialGradient id="paint0_radial_154_325" cx="0" cy="0" r="1" gradientUnits="userSpaceOnUse" gradientTransform="translate(14.25 7.25) rotate(60.611) scale(37.4437)">
<stop stop-color="#7DC1F7" style="stop-color:#7DC1F7;stop-color:color(display-p3 0.4914 0.7558 0.9667);stop-opacity:1;"/>
<stop offset="1" stop-color="#408FCE" style="stop-color:#408FCE;stop-color:color(display-p3 0.2510 0.5608 0.8078);stop-opacity:1;"/>
</radialGradient>
</defs>
</svg>
